# xmcd
#
# Track frame offsets: 
#        150
#        17750
#        31265
#        49210
#        60872
#        71492
#        87507
#        105370
#        120000
#        136510
#
# Disc length: 2112 seconds
#
# Revision: 1
# Processed by: cddbd v1.5.1PL0 Copyright (c) Steve Scherf et al.
# Submitted via: ExactAudioCopy v0.95b3
#
DISCID=6d083e0a
DTITLE=Diamond Rio - Unbelievable
DYEAR=1998
DGENRE=Country
TTITLE0=Two Pump Texaco
TTITLE1=Miss That Girl
TTITLE2=You're Gone
TTITLE3=What More Do You Want From Me
TTITLE4=Unbelievable
TTITLE5=LongWay Back
TTITLE6=I Thought I'd Seen Everything
TTITLE7=Hold Me Now
TTITLE8=I Know How The River Feels
TTITLE9=(I Will) Start All Over Again
EXTD=
EXTT0=
EXTT1=
EXTT2=
EXTT3=
EXTT4=
EXTT5=
EXTT6=
EXTT7=
EXTT8=
EXTT9=
PLAYORDER=
